<?xml version="1.0" encoding="UTF-8" standalone="no"?>
<!-- Created with Inkscape (http://www.inkscape.org/) -->

<svg
   xmlns:dc="http://purl.org/dc/elements/1.1/"
   xmlns:cc="http://creativecommons.org/ns#"
   xmlns:rdf="http://www.w3.org/1999/02/22-rdf-syntax-ns#"
   xmlns:svg="http://www.w3.org/2000/svg"
   xmlns="http://www.w3.org/2000/svg"
   xmlns:sodipodi="http://sodipodi.sourceforge.net/DTD/sodipodi-0.dtd"
   xmlns:inkscape="http://www.inkscape.org/namespaces/inkscape"
   version="1.1"
   id="svg4772"
   xml:space="preserve"
   width="1122.52"
   height="793.70667"
   viewBox="0 0 1122.52 793.70667"
   sodipodi:docname="DFR0605.svg"
   inkscape:version="0.92.4 (5da689c313, 2019-01-14)"><metadata
     id="metadata4778"><rdf:RDF><cc:Work
         rdf:about=""><dc:format>image/svg+xml</dc:format><dc:type
           rdf:resource="http://purl.org/dc/dcmitype/StillImage" /><dc:title></dc:title></cc:Work></rdf:RDF></metadata><defs
     id="defs4776"><clipPath
       clipPathUnits="userSpaceOnUse"
       id="clipPath4788"><path
         d="M 0,595.28 H 841.89 V 0 H 0 Z"
         id="path4786"
         inkscape:connector-curvature="0" /></clipPath><clipPath
       clipPathUnits="userSpaceOnUse"
       id="clipPath4986"><path
         d="m 568.721,514.997 h 220.426 v -67.68 H 568.721 Z"
         id="path4984"
         inkscape:connector-curvature="0" /></clipPath><clipPath
       clipPathUnits="userSpaceOnUse"
       id="clipPath4990"><path
         d="m 568.721,514.997 h 220.426 v -67.68 H 568.721 Z"
         id="path4988"
         inkscape:connector-curvature="0" /></clipPath><clipPath
       clipPathUnits="userSpaceOnUse"
       id="clipPath5038"><path
         d="M 249.633,266.697 H 294.07 V 207.025 H 249.633 Z"
         id="path5036"
         inkscape:connector-curvature="0" /></clipPath><clipPath
       clipPathUnits="userSpaceOnUse"
       id="clipPath5042"><path
         d="M 249.633,266.697 H 294.07 V 207.025 H 249.633 Z"
         id="path5040"
         inkscape:connector-curvature="0" /></clipPath><clipPath
       clipPathUnits="userSpaceOnUse"
       id="clipPath5066"><path
         d="m 502.17,267.416 h 44.437 V 227.635 H 502.17 Z"
         id="path5064"
         inkscape:connector-curvature="0" /></clipPath><clipPath
       clipPathUnits="userSpaceOnUse"
       id="clipPath5070"><path
         d="m 502.17,267.416 h 44.437 V 227.635 H 502.17 Z"
         id="path5068"
         inkscape:connector-curvature="0" /></clipPath><clipPath
       clipPathUnits="userSpaceOnUse"
       id="clipPath5128"><path
         d="m 338.937,452.129 h 39.5 v -25.537 h -39.5 z"
         id="path5126"
         inkscape:connector-curvature="0" /></clipPath><clipPath
       clipPathUnits="userSpaceOnUse"
       id="clipPath5132"><path
         d="m 338.937,452.129 h 39.5 v -25.537 h -39.5 z"
         id="path5130"
         inkscape:connector-curvature="0" /></clipPath><clipPath
       clipPathUnits="userSpaceOnUse"
       id="clipPath5156"><path
         d="m 326.937,499.814 h 39.5 V 472.31 h -39.5 z"
         id="path5154"
         inkscape:connector-curvature="0" /></clipPath><clipPath
       clipPathUnits="userSpaceOnUse"
       id="clipPath5160"><path
         d="m 326.937,499.814 h 39.5 V 472.31 h -39.5 z"
         id="path5158"
         inkscape:connector-curvature="0" /></clipPath><clipPath
       clipPathUnits="userSpaceOnUse"
       id="clipPath5184"><path
         d="m 336.446,544.497 h 39.5 V 518.96 h -39.5 z"
         id="path5182"
         inkscape:connector-curvature="0" /></clipPath><clipPath
       clipPathUnits="userSpaceOnUse"
       id="clipPath5188"><path
         d="m 336.446,544.497 h 39.5 V 518.96 h -39.5 z"
         id="path5186"
         inkscape:connector-curvature="0" /></clipPath><clipPath
       clipPathUnits="userSpaceOnUse"
       id="clipPath5214"><path
         d="m 721.039,150.888 h 76.873 V 95.417 h -76.873 z"
         id="path5212"
         inkscape:connector-curvature="0" /></clipPath><clipPath
       clipPathUnits="userSpaceOnUse"
       id="clipPath5218"><path
         d="m 721.039,150.888 h 76.873 V 95.417 h -76.873 z"
         id="path5216"
         inkscape:connector-curvature="0" /></clipPath><clipPath
       clipPathUnits="userSpaceOnUse"
       id="clipPath5242"><path
         d="M 193.782,121.265 H 570.666 V 18.5068 H 193.782 Z"
         id="path5240"
         inkscape:connector-curvature="0" /></clipPath><clipPath
       clipPathUnits="userSpaceOnUse"
       id="clipPath5282"><path
         d="m 636.732,399.485 h 40.22 v -32.597 h -40.22 z"
         id="path5280"
         inkscape:connector-curvature="0" /></clipPath><clipPath
       clipPathUnits="userSpaceOnUse"
       id="clipPath5302"><path
         d="m 636.523,242.051 h 40.229 v -32.598 h -40.229 z"
         id="path5300"
         inkscape:connector-curvature="0" /></clipPath></defs><sodipodi:namedview
     pagecolor="#ffffff"
     bordercolor="#666666"
     borderopacity="1"
     objecttolerance="10"
     gridtolerance="10"
     guidetolerance="10"
     inkscape:pageopacity="0"
     inkscape:pageshadow="2"
     inkscape:window-width="640"
     inkscape:window-height="480"
     id="namedview4774"
     showgrid="false"
     inkscape:zoom="0.29733907"
     inkscape:cx="561.26001"
     inkscape:cy="396.85333"
     inkscape:window-x="0"
     inkscape:window-y="0"
     inkscape:window-maximized="0"
     inkscape:current-layer="g4780" /><g
     id="g4780"
     inkscape:groupmode="layer"
     inkscape:label="DFR0605"
     transform="matrix(1.3333333,0,0,-1.3333333,0,793.70667)"><g
       id="g4782"><g
         id="g4784"
         clip-path="url(#clipPath4788)"><g
           id="g4790"
           transform="translate(1.855,506.0396)"><path
             d="m 0,0 c 0,54.172 49.832,89.241 81.206,89.241 l 629.329,-0.005 c 22.802,0.005 81.151,-35.42 81.151,-95.987 v -393.021 c 0,-50.757 -41.675,-93.268 -82.714,-93.268 H 83.733 c -45.039,0 -83.441,49.057 -83.441,87.798 z"
             style="fill:#231916;fill-opacity:1;fill-rule:nonzero;stroke:none"
             id="path4792"
             inkscape:connector-curvature="0" /></g><g
           id="g4794"
           transform="translate(96.4287,23.1553)"><path
             d="m 0,0 c -45.374,-1.57 -83.429,33.957 -84.979,79.338 -1.559,45.371 33.958,83.422 79.341,84.971 45.383,1.564 83.41,-33.959 84.97,-79.329 C 80.891,39.615 45.411,1.586 0.074,0"
             style="fill:#f8b72d;fill-opacity:1;fill-rule:nonzero;stroke:none"
             id="path4796"
             inkscape:connector-curvature="0" /></g><g
           id="g4798"
           transform="translate(95.9434,58.8682)"><path
             d="M 0,0 C -25.884,-0.895 -47.596,19.402 -48.482,45.348 -49.378,71.27 -29.104,93.004 -3.23,93.896 22.672,94.785 44.393,74.49 45.271,48.572 46.167,22.65 25.931,0.914 0.037,0"
             style="fill:#ffffff;fill-opacity:1;fill-rule:nonzero;stroke:none"
             id="path4800"
             inkscape:connector-curvature="0" /></g><g
           id="g4802"
           transform="translate(121.7988,155.9561)"><path
             d="m 0,0 c -4.826,-0.154 -8.886,3.654 -9.044,8.531 -0.141,4.901 3.612,8.99 8.447,9.155 C 4.256,17.854 8.317,14.029 8.485,9.148 8.634,4.266 4.854,0.178 0.019,0"
             style="fill:#ffffff;fill-opacity:1;fill-rule:nonzero;stroke:none"
             id="path4804"
             inkscape:connector-curvature="0" /></g><g
           id="g4806"
           transform="translate(155.9243,119.8662)"><path
             d="m 0,0 c -4.834,-0.17 -8.913,3.652 -9.083,8.529 -0.139,4.873 3.642,8.985 8.485,9.149 4.827,0.15 8.887,-3.655 9.055,-8.537 C 8.597,4.26 4.836,0.162 0,0"
             style="fill:#ffffff;fill-opacity:1;fill-rule:nonzero;stroke:none"
             id="path4808"
             inkscape:connector-curvature="0" /></g><g
           id="g4810"
           transform="translate(155.9243,75.8623)"><path
             d="m 0,0 c -4.834,-0.168 -8.913,3.658 -9.083,8.531 -0.139,4.881 3.642,8.981 8.485,9.147 4.827,0.17 8.887,-3.658 9.055,-8.53 C 8.597,4.256 4.836,0.168 0,0"
             style="fill:#ffffff;fill-opacity:1;fill-rule:nonzero;stroke:none"
             id="path4812"
             inkscape:connector-curvature="0" /></g><g
           id="g4814"
           transform="translate(66.7642,38.5576)"><path
             d="m 0,0 c -4.845,-0.15 -8.904,3.656 -9.073,8.529 -0.15,4.893 3.631,8.981 8.476,9.149 C 4.237,17.846 8.289,14.02 8.447,9.148 8.615,4.256 4.854,0.186 0,0"
             style="fill:#ffffff;fill-opacity:1;fill-rule:nonzero;stroke:none"
             id="path4816"
             inkscape:connector-curvature="0" /></g><g
           id="g4818"
           transform="translate(121.7988,38.5576)"><path
             d="m 0,0 c -4.826,-0.15 -8.886,3.656 -9.044,8.529 -0.141,4.893 3.612,8.981 8.447,9.149 C 4.256,17.846 8.317,14.02 8.485,9.148 8.634,4.256 4.854,0.186 0.019,0"
             style="fill:#ffffff;fill-opacity:1;fill-rule:nonzero;stroke:none"
             id="path4820"
             inkscape:connector-curvature="0" /></g><g
           id="g4822"
           transform="translate(32.6567,75.8623)"><path
             d="m 0,0 c -4.854,-0.168 -8.904,3.658 -9.073,8.531 -0.149,4.881 3.622,8.981 8.457,9.147 4.854,0.17 8.905,-3.658 9.082,-8.53 C 8.616,4.256 4.835,0.168 0,0"
             style="fill:#ffffff;fill-opacity:1;fill-rule:nonzero;stroke:none"
             id="path4824"
             inkscape:connector-curvature="0" /></g><g
           id="g4826"
           transform="translate(32.6567,119.8662)"><path
             d="m 0,0 c -4.854,-0.17 -8.904,3.652 -9.073,8.529 -0.149,4.873 3.622,8.985 8.457,9.149 4.854,0.15 8.905,-3.655 9.082,-8.537 C 8.616,4.26 4.835,0.162 0,0"
             style="fill:#ffffff;fill-opacity:1;fill-rule:nonzero;stroke:none"
             id="path4828"
             inkscape:connector-curvature="0" /></g><g
           id="g4830"
           transform="translate(66.7642,155.9561)"><path
             d="m 0,0 c -4.845,-0.154 -8.904,3.654 -9.073,8.531 -0.15,4.901 3.631,8.99 8.476,9.155 C 4.237,17.854 8.289,14.029 8.447,9.148 8.615,4.266 4.854,0.178 0,0"
             style="fill:#ffffff;fill-opacity:1;fill-rule:nonzero;stroke:none"
             id="path4832"
             inkscape:connector-curvature="0" /></g><g
           id="g4834"
           transform="translate(96.4287,418.8159)"><path
             d="m 0,0 c -45.374,-1.569 -83.429,33.958 -84.979,79.339 -1.559,45.371 33.958,83.422 79.341,84.971 45.383,1.564 83.41,-33.959 84.97,-79.329 C 80.891,39.615 45.411,1.587 0.074,0"
             style="fill:#f8b72d;fill-opacity:1;fill-rule:nonzero;stroke:none"
             id="path4836"
             inkscape:connector-curvature="0" /></g><g
           id="g4838"
           transform="translate(95.9434,454.5298)"><path
             d="M 0,0 C -25.884,-0.896 -47.596,19.402 -48.482,45.347 -49.378,71.27 -29.104,93.004 -3.23,93.896 22.672,94.785 44.393,74.489 45.271,48.571 46.167,22.65 25.931,0.914 0.037,0"
             style="fill:#ffffff;fill-opacity:1;fill-rule:nonzero;stroke:none"
             id="path4840"
             inkscape:connector-curvature="0" /></g><g
           id="g4842"
           transform="translate(121.7988,551.6177)"><path
             d="m 0,0 c -4.826,-0.154 -8.886,3.654 -9.044,8.531 -0.141,4.901 3.612,8.99 8.447,9.154 C 4.256,17.853 8.317,14.029 8.485,9.147 8.634,4.266 4.854,0.177 0.019,0"
             style="fill:#ffffff;fill-opacity:1;fill-rule:nonzero;stroke:none"
             id="path4844"
             inkscape:connector-curvature="0" /></g><g
           id="g4846"
           transform="translate(155.9243,515.5269)"><path
             d="m 0,0 c -4.834,-0.169 -8.913,3.653 -9.083,8.53 -0.139,4.873 3.642,8.985 8.485,9.149 C 4.229,17.828 8.289,14.024 8.457,9.142 8.597,4.26 4.836,0.162 0,0"
             style="fill:#ffffff;fill-opacity:1;fill-rule:nonzero;stroke:none"
             id="path4848"
             inkscape:connector-curvature="0" /></g><g
           id="g4850"
           transform="translate(155.9243,471.5239)"><path
             d="m 0,0 c -4.834,-0.168 -8.913,3.658 -9.083,8.531 -0.139,4.881 3.642,8.98 8.485,9.147 C 4.229,17.848 8.289,14.02 8.457,9.147 8.597,4.256 4.836,0.168 0,0"
             style="fill:#ffffff;fill-opacity:1;fill-rule:nonzero;stroke:none"
             id="path4852"
             inkscape:connector-curvature="0" /></g><g
           id="g4854"
           transform="translate(66.7642,434.2183)"><path
             d="m 0,0 c -4.845,-0.15 -8.904,3.657 -9.073,8.53 -0.15,4.893 3.631,8.981 8.476,9.149 C 4.237,17.847 8.289,14.02 8.447,9.148 8.615,4.256 4.854,0.187 0,0"
             style="fill:#ffffff;fill-opacity:1;fill-rule:nonzero;stroke:none"
             id="path4856"
             inkscape:connector-curvature="0" /></g><g
           id="g4858"
           transform="translate(121.7988,434.2183)"><path
             d="m 0,0 c -4.826,-0.15 -8.886,3.657 -9.044,8.53 -0.141,4.893 3.612,8.981 8.447,9.149 C 4.256,17.847 8.317,14.02 8.485,9.148 8.634,4.256 4.854,0.187 0.019,0"
             style="fill:#ffffff;fill-opacity:1;fill-rule:nonzero;stroke:none"
             id="path4860"
             inkscape:connector-curvature="0" /></g><g
           id="g4862"
           transform="translate(32.6567,471.5239)"><path
             d="m 0,0 c -4.854,-0.168 -8.904,3.658 -9.073,8.531 -0.149,4.881 3.622,8.98 8.457,9.147 C 4.238,17.848 8.289,14.02 8.466,9.147 8.616,4.256 4.835,0.168 0,0"
             style="fill:#ffffff;fill-opacity:1;fill-rule:nonzero;stroke:none"
             id="path4864"
             inkscape:connector-curvature="0" /></g><g
           id="g4866"
           transform="translate(32.6567,515.5269)"><path
             d="m 0,0 c -4.854,-0.169 -8.904,3.653 -9.073,8.53 -0.149,4.873 3.622,8.985 8.457,9.149 C 4.238,17.828 8.289,14.024 8.466,9.142 8.616,4.26 4.835,0.162 0,0"
             style="fill:#ffffff;fill-opacity:1;fill-rule:nonzero;stroke:none"
             id="path4868"
             inkscape:connector-curvature="0" /></g><g
           id="g4870"
           transform="translate(66.7642,551.6177)"><path
             d="m 0,0 c -4.845,-0.154 -8.904,3.654 -9.073,8.531 -0.15,4.901 3.631,8.99 8.476,9.154 C 4.237,17.853 8.289,14.029 8.447,9.147 8.615,4.266 4.854,0.177 0,0"
             style="fill:#ffffff;fill-opacity:1;fill-rule:nonzero;stroke:none"
             id="path4872"
             inkscape:connector-curvature="0" /></g><g
           id="g4874"
           transform="translate(213.0249,251.6064)"><path
             d="m 0,0 c -8.692,0 -15.762,-6.613 -15.762,-14.756 0,-8.133 7.07,-14.734 15.762,-14.734 8.692,0 15.761,6.601 15.761,14.734 C 15.761,-6.613 8.692,0 0,0"
             style="fill:#f7f7f8;fill-opacity:1;fill-rule:nonzero;stroke:none"
             id="path4876"
             inkscape:connector-curvature="0" /></g><g
           id="g4878"
           transform="translate(213.0249,251.6064)"><path
             d="m 0,0 c -8.692,0 -15.762,-6.613 -15.762,-14.756 0,-8.133 7.07,-14.734 15.762,-14.734 8.692,0 15.761,6.601 15.761,14.734 C 15.761,-6.613 8.692,0 0,0 Z"
             style="fill:none;stroke:#f5b91c;stroke-width:5;stroke-linecap:butt;stroke-linejoin:miter;stroke-miterlimit:4;stroke-dasharray:none;stroke-opacity:1"
             id="path4880"
             inkscape:connector-curvature="0" /></g><g
           id="g4882"
           transform="translate(213.0249,318.5981)"><path
             d="m 0,0 c -8.692,0 -15.762,-6.604 -15.762,-14.736 0,-8.141 7.07,-14.736 15.762,-14.736 8.692,0 15.761,6.595 15.761,14.736 C 15.761,-6.604 8.692,0 0,0"
             style="fill:#f7f7f8;fill-opacity:1;fill-rule:nonzero;stroke:none"
             id="path4884"
             inkscape:connector-curvature="0" /></g><g
           id="g4886"
           transform="translate(213.0249,318.5981)"><path
             d="m 0,0 c -8.692,0 -15.762,-6.604 -15.762,-14.736 0,-8.141 7.07,-14.736 15.762,-14.736 8.692,0 15.761,6.595 15.761,14.736 C 15.761,-6.604 8.692,0 0,0 Z"
             style="fill:none;stroke:#f5b91c;stroke-width:5;stroke-linecap:butt;stroke-linejoin:miter;stroke-miterlimit:4;stroke-dasharray:none;stroke-opacity:1"
             id="path4888"
             inkscape:connector-curvature="0" /></g><g
           id="g4890"
           transform="translate(213.0249,385.6094)"><path
             d="m 0,0 c -8.692,0 -15.762,-6.604 -15.762,-14.745 0,-8.133 7.07,-14.746 15.762,-14.746 8.692,0 15.761,6.613 15.761,14.746 C 15.761,-6.604 8.692,0 0,0"
             style="fill:#f7f7f8;fill-opacity:1;fill-rule:nonzero;stroke:none"
             id="path4892"
             inkscape:connector-curvature="0" /></g><g
           id="g4894"
           transform="translate(213.0249,385.6094)"><path
             d="m 0,0 c -8.692,0 -15.762,-6.604 -15.762,-14.745 0,-8.133 7.07,-14.746 15.762,-14.746 8.692,0 15.761,6.613 15.761,14.746 C 15.761,-6.604 8.692,0 0,0 Z"
             style="fill:none;stroke:#f5b91c;stroke-width:5;stroke-linecap:butt;stroke-linejoin:miter;stroke-miterlimit:4;stroke-dasharray:none;stroke-opacity:1"
             id="path4896"
             inkscape:connector-curvature="0" /></g><g
           id="g4898"
           transform="translate(230.5864,270.2217)"><path
             d="M 0,0 17.925,-16.761"
             style="fill:none;stroke:#ffffff;stroke-width:5;stroke-linecap:round;stroke-linejoin:miter;stroke-miterlimit:4;stroke-dasharray:none;stroke-opacity:1"
             id="path4900"
             inkscape:connector-curvature="0" /></g><g
           id="g4902"
           transform="translate(248.5117,253.4609)"><path
             d="M 0,0 V -33.5"
             style="fill:none;stroke:#ffffff;stroke-width:5;stroke-linecap:round;stroke-linejoin:miter;stroke-miterlimit:4;stroke-dasharray:none;stroke-opacity:1"
             id="path4904"
             inkscape:connector-curvature="0" /></g><g
           id="g4906"
           transform="translate(248.5117,219.9609)"><path
             d="M 0,0 -17.925,-16.742"
             style="fill:none;stroke:#ffffff;stroke-width:5;stroke-linecap:round;stroke-linejoin:miter;stroke-miterlimit:4;stroke-dasharray:none;stroke-opacity:1"
             id="path4908"
             inkscape:connector-curvature="0" /></g><g
           id="g4910"
           transform="translate(194.7817,203.2187)"><path
             d="M 0,0 -17.907,16.742"
             style="fill:none;stroke:#ffffff;stroke-width:5;stroke-linecap:round;stroke-linejoin:miter;stroke-miterlimit:4;stroke-dasharray:none;stroke-opacity:1"
             id="path4912"
             inkscape:connector-curvature="0" /></g><g
           id="g4914"
           transform="translate(176.875,219.9609)"><path
             d="M 0,0 V 33.5"
             style="fill:none;stroke:#ffffff;stroke-width:5;stroke-linecap:round;stroke-linejoin:miter;stroke-miterlimit:4;stroke-dasharray:none;stroke-opacity:1"
             id="path4916"
             inkscape:connector-curvature="0" /></g><g
           id="g4918"
           transform="translate(176.875,253.4609)"><path
             d="M 0,0 17.907,16.761"
             style="fill:none;stroke:#ffffff;stroke-width:5;stroke-linecap:round;stroke-linejoin:miter;stroke-miterlimit:4;stroke-dasharray:none;stroke-opacity:1"
             id="path4920"
             inkscape:connector-curvature="0" /></g><g
           id="g4922"
           transform="translate(248.5117,387.4839)"><path
             d="M 0,0 V -33.511"
             style="fill:none;stroke:#ffffff;stroke-width:5;stroke-linecap:round;stroke-linejoin:miter;stroke-miterlimit:4;stroke-dasharray:none;stroke-opacity:1"
             id="path4924"
             inkscape:connector-curvature="0" /></g><g
           id="g4926"
           transform="translate(248.5117,353.9731)"><path
             d="M 0,0 -17.925,-16.741"
             style="fill:none;stroke:#ffffff;stroke-width:5;stroke-linecap:round;stroke-linejoin:miter;stroke-miterlimit:4;stroke-dasharray:none;stroke-opacity:1"
             id="path4928"
             inkscape:connector-curvature="0" /></g><g
           id="g4930"
           transform="translate(194.7817,337.2319)"><path
             d="M 0,0 -17.907,16.741"
             style="fill:none;stroke:#ffffff;stroke-width:5;stroke-linecap:round;stroke-linejoin:miter;stroke-miterlimit:4;stroke-dasharray:none;stroke-opacity:1"
             id="path4932"
             inkscape:connector-curvature="0" /></g><g
           id="g4934"
           transform="translate(230.5864,337.2319)"><path
             d="M 0,0 17.925,-16.76"
             style="fill:none;stroke:#ffffff;stroke-width:5;stroke-linecap:round;stroke-linejoin:miter;stroke-miterlimit:4;stroke-dasharray:none;stroke-opacity:1"
             id="path4936"
             inkscape:connector-curvature="0" /></g><g
           id="g4938"
           transform="translate(248.5117,320.4722)"><path
             d="M 0,0 V -33.51"
             style="fill:none;stroke:#ffffff;stroke-width:5;stroke-linecap:round;stroke-linejoin:miter;stroke-miterlimit:4;stroke-dasharray:none;stroke-opacity:1"
             id="path4940"
             inkscape:connector-curvature="0" /></g><g
           id="g4942"
           transform="translate(248.5117,286.9619)"><path
             d="M 0,0 -17.925,-16.74"
             style="fill:none;stroke:#ffffff;stroke-width:5;stroke-linecap:round;stroke-linejoin:miter;stroke-miterlimit:4;stroke-dasharray:none;stroke-opacity:1"
             id="path4944"
             inkscape:connector-curvature="0" /></g><g
           id="g4946"
           transform="translate(194.7817,270.2217)"><path
             d="M 0,0 -17.907,16.74"
             style="fill:none;stroke:#ffffff;stroke-width:5;stroke-linecap:round;stroke-linejoin:miter;stroke-miterlimit:4;stroke-dasharray:none;stroke-opacity:1"
             id="path4948"
             inkscape:connector-curvature="0" /></g><g
           id="g4950"
           transform="translate(176.875,286.9619)"><path
             d="M 0,0 V 33.51"
             style="fill:none;stroke:#ffffff;stroke-width:5;stroke-linecap:round;stroke-linejoin:miter;stroke-miterlimit:4;stroke-dasharray:none;stroke-opacity:1"
             id="path4952"
             inkscape:connector-curvature="0" /></g><g
           id="g4954"
           transform="translate(176.875,320.4722)"><path
             d="M 0,0 17.907,16.76"
             style="fill:none;stroke:#ffffff;stroke-width:5;stroke-linecap:round;stroke-linejoin:miter;stroke-miterlimit:4;stroke-dasharray:none;stroke-opacity:1"
             id="path4956"
             inkscape:connector-curvature="0" /></g><g
           id="g4958"
           transform="translate(230.5864,404.2334)"><path
             d="M 0,0 H -35.805"
             style="fill:none;stroke:#ffffff;stroke-width:5;stroke-linecap:round;stroke-linejoin:miter;stroke-miterlimit:4;stroke-dasharray:none;stroke-opacity:1"
             id="path4960"
             inkscape:connector-curvature="0" /></g><g
           id="g4962"
           transform="translate(230.5864,203.2187)"><path
             d="M 0,0 H -35.805"
             style="fill:none;stroke:#ffffff;stroke-width:5;stroke-linecap:round;stroke-linejoin:miter;stroke-miterlimit:4;stroke-dasharray:none;stroke-opacity:1"
             id="path4964"
             inkscape:connector-curvature="0" /></g><g
           id="g4966"
           transform="translate(248.5117,387.4839)"><path
             d="M 0,0 -17.925,16.75"
             style="fill:none;stroke:#ffffff;stroke-width:5;stroke-linecap:round;stroke-linejoin:miter;stroke-miterlimit:4;stroke-dasharray:none;stroke-opacity:1"
             id="path4968"
             inkscape:connector-curvature="0" /></g><g
           id="g4970"
           transform="translate(194.7817,404.2334)"><path
             d="M 0,0 -17.907,-16.75"
             style="fill:none;stroke:#ffffff;stroke-width:5;stroke-linecap:round;stroke-linejoin:miter;stroke-miterlimit:4;stroke-dasharray:none;stroke-opacity:1"
             id="path4972"
             inkscape:connector-curvature="0" /></g><g
           id="g4974"
           transform="translate(176.875,353.9731)"><path
             d="M 0,0 V 33.511"
             style="fill:none;stroke:#ffffff;stroke-width:5;stroke-linecap:round;stroke-linejoin:miter;stroke-miterlimit:4;stroke-dasharray:none;stroke-opacity:1"
             id="path4976"
             inkscape:connector-curvature="0" /></g><path
           d="M 792.541,444.901 H 565.122 v 67.415 h 227.419 z"
           style="fill:#ffffff;fill-opacity:1;fill-rule:nonzero;stroke:none"
           id="path4978"
           inkscape:connector-curvature="0" /><g
           id="g4980"><g
             id="g4982" /><g
             id="g5006"><g
               clip-path="url(#clipPath4986)"
               id="g5004"><g
                 id="g5002"><g
                   id="g4992" /><g
                   id="g5000"><g
                     clip-path="url(#clipPath4990)"
                     id="g4998"><text
                       transform="matrix(1,0,0,-0.97666703,568.7207,462.9326)"
                       style="font-variant:normal;font-weight:normal;font-stretch:normal;font-size:63.95669937px;font-family:'Eras Demi ITC';-inkscape-font-specification:ErasITC-Demi;writing-mode:lr-tb;fill:#000100;fill-opacity:1;fill-rule:nonzero;stroke:none"
                       id="text4996"><tspan
                         x="0 48.735004 73.550201 109.81365 144.28632 161.36275 185.15465"
                         y="0"
                         sodipodi:role="line"
                         id="tspan4994">Gravity</tspan></text>
</g></g></g></g></g></g><g
           id="g5008"
           transform="translate(274.8486,294.1895)"><path
             d="M 0,0 V 16.441"
             style="fill:#f7f7f8;fill-opacity:1;fill-rule:nonzero;stroke:#f7f7f8;stroke-width:5;stroke-linecap:round;stroke-linejoin:round;stroke-miterlimit:10;stroke-dasharray:none;stroke-opacity:1"
             id="path5010"
             inkscape:connector-curvature="0" /></g><g
           id="g5012"
           transform="translate(266.6318,302.7749)"><path
             d="M 0,0 H 16.439"
             style="fill:#f7f7f8;fill-opacity:1;fill-rule:nonzero;stroke:#f7f7f8;stroke-width:5;stroke-linecap:round;stroke-linejoin:round;stroke-miterlimit:10;stroke-dasharray:none;stroke-opacity:1"
             id="path5014"
             inkscape:connector-curvature="0" /></g><g
           id="g5016"
           transform="translate(520.1816,295.1895)"><path
             d="M 0,0 V 16.441"
             style="fill:#f7f7f8;fill-opacity:1;fill-rule:nonzero;stroke:#f7f7f8;stroke-width:5;stroke-linecap:round;stroke-linejoin:round;stroke-miterlimit:10;stroke-dasharray:none;stroke-opacity:1"
             id="path5018"
             inkscape:connector-curvature="0" /></g><g
           id="g5020"
           transform="translate(511.9648,303.7749)"><path
             d="M 0,0 H 16.439"
             style="fill:#f7f7f8;fill-opacity:1;fill-rule:nonzero;stroke:#f7f7f8;stroke-width:5;stroke-linecap:round;stroke-linejoin:round;stroke-miterlimit:10;stroke-dasharray:none;stroke-opacity:1"
             id="path5022"
             inkscape:connector-curvature="0" /></g><g
           id="g5024"
           transform="translate(274.8516,378.9492)"><path
             d="M 0,0 V -16.441"
             style="fill:#f7f7f8;fill-opacity:1;fill-rule:nonzero;stroke:#f7f7f8;stroke-width:5;stroke-linecap:round;stroke-linejoin:round;stroke-miterlimit:10;stroke-dasharray:none;stroke-opacity:1"
             id="path5026"
             inkscape:connector-curvature="0" /></g><g
           id="g5028"
           transform="translate(520.1855,367.2827)"><path
             d="M 0,0 V -16.441"
             style="fill:#f7f7f8;fill-opacity:1;fill-rule:nonzero;stroke:#f7f7f8;stroke-width:5;stroke-linecap:round;stroke-linejoin:round;stroke-miterlimit:10;stroke-dasharray:none;stroke-opacity:1"
             id="path5030"
             inkscape:connector-curvature="0" /></g><g
           id="g5032"><g
             id="g5034" /><g
             id="g5058"><g
               clip-path="url(#clipPath5038)"
               id="g5056"><g
                 id="g5054"><g
                   id="g5044" /><g
                   id="g5052"><g
                     clip-path="url(#clipPath5042)"
                     id="g5050"><text
                       transform="matrix(0,-1,-0.90494553,0,263.1857,266.6969)"
                       style="font-variant:normal;font-weight:bold;font-stretch:normal;font-size:39.78139877px;font-family:Arial;-inkscape-font-specification:Arial-BoldMT;writing-mode:lr-tb;fill:#ffffff;fill-opacity:1;fill-rule:nonzero;stroke:none"
                       id="text5048"><tspan
                         x="0 28.72217"
                         y="0"
                         sodipodi:role="line"
                         id="tspan5046">DO</tspan></text>
</g></g></g></g></g></g><g
           id="g5060"><g
             id="g5062" /><g
             id="g5086"><g
               clip-path="url(#clipPath5066)"
               id="g5084"><g
                 id="g5082"><g
                   id="g5072" /><g
                   id="g5080"><g
                     clip-path="url(#clipPath5070)"
                     id="g5078"><text
                       transform="matrix(0,1,0.90494553,0,533.0553,227.6344)"
                       style="font-variant:normal;font-weight:bold;font-stretch:normal;font-size:39.78139877px;font-family:Arial;-inkscape-font-specification:Arial-BoldMT;writing-mode:lr-tb;fill:#ffffff;fill-opacity:1;fill-rule:nonzero;stroke:none"
                       id="text5076"><tspan
                         x="0 28.72217"
                         y="0"
                         sodipodi:role="line"
                         id="tspan5074">DI</tspan></text>
</g></g></g></g></g></g><path
           d="m 493.339,371.056 h -22.678 v 7.204 h 22.678 z"
           style="fill:#cccccc;fill-opacity:1;fill-rule:nonzero;stroke:none"
           id="path5088"
           inkscape:connector-curvature="0" /><path
           d="m 492.771,339.387 h -21.543 v 31.669 h 21.543 z"
           style="fill:#f8b72d;fill-opacity:1;fill-rule:nonzero;stroke:none"
           id="path5090"
           inkscape:connector-curvature="0" /><path
           d="m 493.339,332.906 h -22.678 v 7.204 h 22.678 z"
           style="fill:#cccccc;fill-opacity:1;fill-rule:nonzero;stroke:none"
           id="path5092"
           inkscape:connector-curvature="0" /><g
           id="g5094"
           transform="translate(418.8335,445.6318)"><path
             d="M 0,0 V 78.978"
             style="fill:#f7f7f8;fill-opacity:1;fill-rule:nonzero;stroke:#f7f7f8;stroke-width:4;stroke-linecap:round;stroke-linejoin:miter;stroke-miterlimit:4;stroke-dasharray:none;stroke-opacity:1"
             id="path5096"
             inkscape:connector-curvature="0" /></g><g
           id="g5098"
           transform="translate(418.8335,454.4658)"><path
             d="m 0,0 c -17.366,0 -31.446,14.075 -31.446,31.44 0,17.365 14.08,31.44 31.446,31.44"
             style="fill:#f7f7f8;fill-opacity:1;fill-rule:nonzero;stroke:#f7f7f8;stroke-width:4;stroke-linecap:butt;stroke-linejoin:miter;stroke-miterlimit:10;stroke-dasharray:none;stroke-opacity:1"
             id="path5100"
             inkscape:connector-curvature="0" /></g><g
           id="g5102"
           transform="translate(363.8989,485.1206)"><path
             d="M 0,0 H 17.347"
             style="fill:#f7f7f8;fill-opacity:1;fill-rule:nonzero;stroke:#f7f7f8;stroke-width:4;stroke-linecap:round;stroke-linejoin:miter;stroke-miterlimit:4;stroke-dasharray:none;stroke-opacity:1"
             id="path5104"
             inkscape:connector-curvature="0" /></g><g
           id="g5106"
           transform="translate(373.9727,454.4683)"><path
             d="M 0,0 12.266,12.263"
             style="fill:#f7f7f8;fill-opacity:1;fill-rule:nonzero;stroke:#f7f7f8;stroke-width:4;stroke-linecap:round;stroke-linejoin:miter;stroke-miterlimit:4;stroke-dasharray:none;stroke-opacity:1"
             id="path5108"
             inkscape:connector-curvature="0" /></g><g
           id="g5110"
           transform="translate(373.9727,516.6172)"><path
             d="M 0,0 12.266,-12.262"
             style="fill:#f7f7f8;fill-opacity:1;fill-rule:nonzero;stroke:#f7f7f8;stroke-width:4;stroke-linecap:round;stroke-linejoin:miter;stroke-miterlimit:4;stroke-dasharray:none;stroke-opacity:1"
             id="path5112"
             inkscape:connector-curvature="0" /></g><g
           id="g5114"
           transform="translate(418.8335,473.1372)"><path
             d="M 0,0 H 7.946"
             style="fill:#f7f7f8;fill-opacity:1;fill-rule:nonzero;stroke:#f7f7f8;stroke-width:4;stroke-linecap:round;stroke-linejoin:miter;stroke-miterlimit:4;stroke-dasharray:none;stroke-opacity:1"
             id="path5116"
             inkscape:connector-curvature="0" /></g><g
           id="g5118"
           transform="translate(418.8335,497.4453)"><path
             d="M 0,0 7.946,0.001"
             style="fill:#f7f7f8;fill-opacity:1;fill-rule:nonzero;stroke:#f7f7f8;stroke-width:4;stroke-linecap:round;stroke-linejoin:miter;stroke-miterlimit:4;stroke-dasharray:none;stroke-opacity:1"
             id="path5120"
             inkscape:connector-curvature="0" /></g><g
           id="g5122"><g
             id="g5124" /><g
             id="g5148"><g
               clip-path="url(#clipPath5128)"
               id="g5146"><g
                 id="g5144"><g
                   id="g5134" /><g
                   id="g5142"><g
                     clip-path="url(#clipPath5132)"
                     id="g5140"><text
                       transform="matrix(0,1,0.90494411,0,366.3903,426.5914)"
                       style="font-variant:normal;font-weight:bold;font-stretch:normal;font-size:35.36130142px;font-family:Arial;-inkscape-font-specification:Arial-BoldMT;writing-mode:lr-tb;fill:#ffffff;fill-opacity:1;fill-rule:nonzero;stroke:none"
                       id="text5138"><tspan
                         x="0"
                         y="0"
                         id="tspan5136">R</tspan></text>
</g></g></g></g></g></g><g
           id="g5150"><g
             id="g5152" /><g
             id="g5176"><g
               clip-path="url(#clipPath5156)"
               id="g5174"><g
                 id="g5172"><g
                   id="g5162" /><g
                   id="g5170"><g
                     clip-path="url(#clipPath5160)"
                     id="g5168"><text
                       transform="matrix(0,1,0.90494411,0,354.3903,472.3092)"
                       style="font-variant:normal;font-weight:bold;font-stretch:normal;font-size:35.36130142px;font-family:Arial;-inkscape-font-specification:Arial-BoldMT;writing-mode:lr-tb;fill:#ffffff;fill-opacity:1;fill-rule:nonzero;stroke:none"
                       id="text5166"><tspan
                         x="0"
                         y="0"
                         id="tspan5164">G</tspan></text>
</g></g></g></g></g></g><g
           id="g5178"><g
             id="g5180" /><g
             id="g5204"><g
               clip-path="url(#clipPath5184)"
               id="g5202"><g
                 id="g5200"><g
                   id="g5190" /><g
                   id="g5198"><g
                     clip-path="url(#clipPath5188)"
                     id="g5196"><text
                       transform="matrix(0,1,0.90494411,0,363.899,518.9596)"
                       style="font-variant:normal;font-weight:bold;font-stretch:normal;font-size:35.36130142px;font-family:Arial;-inkscape-font-specification:Arial-BoldMT;writing-mode:lr-tb;fill:#ffffff;fill-opacity:1;fill-rule:nonzero;stroke:none"
                       id="text5194"><tspan
                         x="0"
                         y="0"
                         id="tspan5192">B</tspan></text>
</g></g></g></g></g></g><path
           d="m 722.499,160.799 h 69.215 V 87.212 h -69.215 z"
           style="fill:#ffffff;fill-opacity:1;fill-rule:nonzero;stroke:none"
           id="path5206"
           inkscape:connector-curvature="0" /><g
           id="g5208"><g
             id="g5210" /><g
             id="g5234"><g
               clip-path="url(#clipPath5214)"
               id="g5232"><g
                 id="g5230"><g
                   id="g5220" /><g
                   id="g5228"><g
                     clip-path="url(#clipPath5218)"
                     id="g5226"><text
                       transform="matrix(0,1,0.96553062,0,780.1748,95.417)"
                       style="font-variant:normal;font-weight:normal;font-stretch:normal;font-size:73.48259735px;font-family:'Eras Demi ITC';-inkscape-font-specification:ErasITC-Demi;writing-mode:lr-tb;fill:#000100;fill-opacity:1;fill-rule:nonzero;stroke:none"
                       id="text5224"><tspan
                         x="0"
                         y="0"
                         id="tspan5222">D</tspan></text>
</g></g></g></g></g></g><g
           id="g5236"><g
             id="g5238" /><g
             id="g5252"><g
               clip-path="url(#clipPath5242)"
               id="g5250"><text
                 transform="matrix(1,0,0,-0.97578111,193.7817,83.7568)"
                 style="font-variant:normal;font-weight:normal;font-stretch:normal;font-size:46.1169014px;font-family:'Eras Demi ITC';-inkscape-font-specification:ErasITC-Demi;writing-mode:lr-tb;fill:#f8b72d;fill-opacity:1;fill-rule:nonzero;stroke:none"
                 id="text5248"><tspan
                   x="0 34.81826 47.131474 76.18512 88.475273 105.63076 131.77904 144.00002 155.52925 184.62901 219.77008"
                   y="0"
                   sodipodi:role="line"
                   id="tspan5244">Digital RGB</tspan><tspan
                   x="0 24.764776 52.9422 87.76046 99.289688 140.14926 168.64951 197.47256 226.29562 238.5166 264.36514 275.89435 308.68347 336.81479 348.75906"
                   y="55.340279"
                   sodipodi:role="line"
                   id="tspan5246">LED Module V1.0</tspan></text>
</g></g></g><path
           d="M 636.311,437.508 H 792.957 V 162.949 H 636.311 Z"
           style="fill:#fcf3d3;fill-opacity:1;fill-rule:nonzero;stroke:none"
           id="path5254"
           inkscape:connector-curvature="0" /><g
           id="g5256"
           transform="translate(554.7705,303.9922)"><path
             d="m 0,0 v 0 c 0,8.623 4.224,15.604 9.447,15.604 h 40.298 c 5.215,0 9.443,-6.981 9.443,-15.604 0,-8.604 -4.228,-15.586 -9.443,-15.586 H 9.447 C 4.224,-15.586 0,-8.604 0,0"
             style="fill:#ececeb;fill-opacity:1;fill-rule:nonzero;stroke:none"
             id="path5258"
             inkscape:connector-curvature="0" /></g><path
           d="M 604.933,319.596 H 636 v -31.189 h -31.067 z"
           style="fill:#b3b3b3;fill-opacity:1;fill-rule:nonzero;stroke:none"
           id="path5260"
           inkscape:connector-curvature="0" /><g
           id="g5262"
           transform="translate(554.7061,355.1787)"><path
             d="m 0,0 c 0,8.946 4.186,16.141 9.386,16.141 h 40.066 c 5.201,0 9.388,-7.195 9.388,-16.141 0,-8.938 -4.187,-16.142 -9.388,-16.142 H 9.386 C 4.186,-16.142 0,-8.938 0,0"
             style="fill:#ececeb;fill-opacity:1;fill-rule:nonzero;stroke:none"
             id="path5264"
             inkscape:connector-curvature="0" /></g><path
           d="m 605.35,371.125 h 30.887 V 338.844 H 605.35 Z"
           style="fill:#b3b3b3;fill-opacity:1;fill-rule:nonzero;stroke:none"
           id="path5266"
           inkscape:connector-curvature="0" /><g
           id="g5268"
           transform="translate(555.373,251.9805)"><path
             d="m 0,0 v 0 c 0,8.799 4.219,15.928 9.42,15.928 h 40.168 c 5.201,0 9.414,-7.129 9.414,-15.928 0,-8.799 -4.213,-15.929 -9.414,-15.929 H 9.42 C 4.219,-15.929 0,-8.799 0,0"
             style="fill:#ececeb;fill-opacity:1;fill-rule:nonzero;stroke:none"
             id="path5270"
             inkscape:connector-curvature="0" /></g><path
           d="m 605.377,267.908 h 30.972 v -31.856 h -30.972 z"
           style="fill:#b3b3b3;fill-opacity:1;fill-rule:nonzero;stroke:none"
           id="path5272"
           inkscape:connector-curvature="0" /><path
           d="m 677.055,395.203 h 65.631 v -28.102 h -65.631 z"
           style="fill:#999999;fill-opacity:1;fill-rule:nonzero;stroke:none"
           id="path5274"
           inkscape:connector-curvature="0" /><g
           id="g5276"><g
             id="g5278" /><g
             id="g5288"><g
               clip-path="url(#clipPath5282)"
               id="g5286"
               style="opacity:0.76605201"><path
                 d="m 636.732,399.485 h 40.22 v -32.598 h -40.22 z"
                 style="fill:#fae9a9;fill-opacity:1;fill-rule:nonzero;stroke:none"
                 id="path5284"
                 inkscape:connector-curvature="0" /></g></g></g><g
           id="g5290"
           transform="translate(667.1611,384.6982)"><path
             d="M 0,0 H 9.884 V 10.134 H 75.69 V 14.77 H 0 Z"
             style="fill:#b3b3b3;fill-opacity:1;fill-rule:nonzero;stroke:none"
             id="path5292"
             inkscape:connector-curvature="0" /></g><path
           d="m 676.846,213.737 h 65.631 v 28.082 h -65.631 z"
           style="fill:#999999;fill-opacity:1;fill-rule:nonzero;stroke:none"
           id="path5294"
           inkscape:connector-curvature="0" /><g
           id="g5296"><g
             id="g5298" /><g
             id="g5308"><g
               clip-path="url(#clipPath5302)"
               id="g5306"
               style="opacity:0.76605201"><path
                 d="m 636.523,209.453 h 40.229 v 32.598 h -40.229 z"
                 style="fill:#fae9a9;fill-opacity:1;fill-rule:nonzero;stroke:none"
                 id="path5304"
                 inkscape:connector-curvature="0" /></g></g></g><g
           id="g5310"
           transform="translate(666.9482,224.2314)"><path
             d="m 0,0 h 9.892 v -10.133 h 65.794 v -4.645 l -75.686,0 z"
             style="fill:#b3b3b3;fill-opacity:1;fill-rule:nonzero;stroke:none"
             id="path5312"
             inkscape:connector-curvature="0" /></g><path
           d="m 636.311,162.949 h -39.504 v 15.492 h 39.504 z"
           style="fill:#fcf3d3;fill-opacity:1;fill-rule:nonzero;stroke:none"
           id="path5314"
           inkscape:connector-curvature="0" /><path
           d="m 636.311,422.016 h -39.504 v 15.492 h 39.504 z"
           style="fill:#fcf3d3;fill-opacity:1;fill-rule:nonzero;stroke:none"
           id="path5316"
           inkscape:connector-curvature="0" /><g
           id="g5318"
           transform="translate(348.5,235.043)"><path
             d="m 0,0 c 0,6.894 -5.373,12.482 -12,12.482 h -2.5 c -6.627,0 -12,-5.588 -12,-12.482 v -2.6 c 0,-6.893 5.373,-12.482 12,-12.482 h 2.5 c 6.627,0 12,5.589 12,12.482 z"
             style="fill:#f8b72d;fill-opacity:1;fill-rule:nonzero;stroke:none"
             id="path5320"
             inkscape:connector-curvature="0" /></g><g
           id="g5322"
           transform="translate(436,235.043)"><path
             d="m 0,0 c 0,6.894 -5.373,12.482 -12,12.482 h -2.5 c -6.627,0 -12,-5.588 -12,-12.482 v -2.6 c 0,-6.893 5.373,-12.482 12,-12.482 h 2.5 c 6.627,0 12,5.589 12,12.482 z"
             style="fill:#f8b72d;fill-opacity:1;fill-rule:nonzero;stroke:none"
             id="path5324"
             inkscape:connector-curvature="0" /></g><g
           id="g5326"
           transform="translate(436,380.9697)"><path
             d="m 0,0 c 0,6.894 -5.373,12.482 -12,12.482 h -2.5 c -6.627,0 -12,-5.588 -12,-12.482 v -2.6 c 0,-6.893 5.373,-12.482 12,-12.482 h 2.5 c 6.627,0 12,5.589 12,12.482 z"
             style="fill:#f8b72d;fill-opacity:1;fill-rule:nonzero;stroke:none"
             id="path5328"
             inkscape:connector-curvature="0" /></g><g
           id="g5330"
           transform="translate(348.5,380.9697)"><path
             d="m 0,0 c 0,6.894 -5.373,12.482 -12,12.482 h -2.5 c -6.627,0 -12,-5.588 -12,-12.482 v -2.6 c 0,-6.893 5.373,-12.482 12,-12.482 h 2.5 c 6.627,0 12,5.589 12,12.482 z"
             style="fill:#f8b72d;fill-opacity:1;fill-rule:nonzero;stroke:none"
             id="path5332"
             inkscape:connector-curvature="0" /></g><path
           d="M 447,236.861 H 311.5 V 378.26 H 447 Z"
           style="fill:#c9cacb;fill-opacity:1;fill-rule:nonzero;stroke:none"
           id="path5334"
           inkscape:connector-curvature="0" /><g
           id="g5336"
           transform="translate(434,307.5605)"><path
             d="m 0,0 c 0,-30.237 -24.513,-54.75 -54.75,-54.75 -30.237,0 -54.75,24.513 -54.75,54.75 0,30.238 24.513,54.75 54.75,54.75 C -24.513,54.75 0,30.238 0,0"
             style="fill:#f1e988;fill-opacity:1;fill-rule:nonzero;stroke:none"
             id="path5338"
             inkscape:connector-curvature="0" /></g><g
           id="g5340"
           transform="translate(311.5,236.8613)"><path
             d="M 0,0 V 28.347 L 28.347,0 Z"
             style="fill:#9f9fa0;fill-opacity:1;fill-rule:nonzero;stroke:none"
             id="path5342"
             inkscape:connector-curvature="0" /></g></g></g></g></svg>